0
SECTION
2
HEADER
9
$INSUNITS
70
4
9
$ACADVER
1
AC1014
9
$HANDSEED
5
FFFF
0
ENDSEC
0
SECTION
2
TABLES
0
TABLE
2
VPORT
5
8
100
AcDbSymbolTable
0
ENDTAB
0
TABLE
2
LTYPE
5
5
100
AcDbSymbolTable
0
LTYPE
5
14
100
AcDbSymbolTableRecord
100
AcDbLinetypeTableRecord
2
BYBLOCK
70
0
0
LTYPE
5
15
100
AcDbSymbolTableRecord
100
AcDbLinetypeTableRecord
2
BYLAYER
70
0
0
ENDTAB
0
TABLE
2
LAYER
5
2
100
AcDbSymbolTable
70
2
0
LAYER
5
50
100
AcDbSymbolTableRecord
100
AcDbLayerTableRecord
2
0
70
0
6
CONTINUOUS
0
ENDTAB
0
TABLE
2
STYLE
5
3
100
AcDbSymbolTable
70
1
0
STYLE
5
11
100
AcDbSymbolTableRecord
100
AcDbTextStyleTableRecord
2
STANDARD
70
0
0
ENDTAB
0
TABLE
2
VIEW
5
6
100
AcDbSymbolTable
70
0
0
ENDTAB
0
TABLE
2
UCS
5
7
100
AcDbSymbolTable
70
0
0
ENDTAB
0
TABLE
2
APPID
5
9
100
AcDbSymbolTable
70
2
0
APPID
5
12
100
AcDbSymbolTableRecord
100
AcDbRegAppTableRecord
2
ACAD
70
0
0
ENDTAB
0
TABLE
2
DIMSTYLE
5
A
100
AcDbSymbolTable
70
1
0
ENDTAB
0
TABLE
2
BLOCK_RECORD
5
1
100
AcDbSymbolTable
70
1
0
BLOCK_RECORD
5
1F
100
AcDbSymbolTableRecord
100
AcDbBlockTableRecord
2
*MODEL_SPACE
0
BLOCK_RECORD
5
1B
100
AcDbSymbolTableRecord
100
AcDbBlockTableRecord
2
*PAPER_SPACE
0
ENDTAB
0
ENDSEC
0
SECTION
2
BLOCKS
0
BLOCK
5
20
100
AcDbEntity
100
AcDbBlockBegin
2
*MODEL_SPACE
0
ENDBLK
5
21
100
AcDbEntity
100
AcDbBlockEnd
0
BLOCK
5
1C
100
AcDbEntity
100
AcDbBlockBegin
2
*PAPER_SPACE
0
ENDBLK
5
1D
100
AcDbEntity
100
AcDbBlockEnd
0
ENDSEC
0
SECTION
2
ENTITIES
0
LWPOLYLINE
5
100
100
AcDbEntity
8
0
100
AcDbPolyline
90
51
70
1
43
0.0
10
-78.272069022329873
20
42.505144593236224
10
-85.905304567956193
20
36.830000000000013
10
-98.328790799033015
20
36.829999999999984
42
0.011211458141547233
10
-99.88098805578565
20
32.385000000000041
10
-105.12474387602565
20
32.385000000000126
42
-0.042413072335759812
10
-98.152699063486963
20
49.659316009713244
10
-96.315014665419767
20
47.82163161164604
42
0.41421356237309553
10
-85.538707320136766
20
47.82163161164604
10
-46.025580387432555
20
87.334758544350407
42
0.41421356237309409
10
-46.025580387432541
20
92.722912216991901
10
-47.130691346761878
20
93.828023176321153
42
-0.23704249830501123
10
47.130691346761822
20
93.828023176321196
10
46.025580387432527
20
92.722912216991887
42
0.41421356237309509
10
46.025580387432527
20
87.334758544350407
10
87.334758544350564
20
46.025580387432228
42
0.41421356237309448
10
92.722912216992057
20
46.025580387432221
10
93.828023176321338
20
47.130691346761608
42
-0.2370424983050077
10
93.828023176321693
20
-47.130691346760862
10
92.72291221699237
20
-46.02558038743156
42
0.41421356237309598
10
87.334758544350876
20
-46.025580387431603
10
46.025580387433145
20
-87.33475854435008
42
0.41421356237309409
10
46.025580387433195
20
-92.722912216991574
10
47.130691346762504
20
-93.828023176320869
42
-0.23704249830501298
10
-47.130691346761822
20
-93.828023176321196
10
-46.025580387432527
20
-92.722912216991887
42
0.41421356237309509
10
-46.025580387432527
20
-87.334758544350407
10
-85.538707320136751
20
-47.821631611646055
42
0.41421356237309448
10
-96.315014665419739
20
-47.821631611646055
10
-98.152699063486963
20
-49.659316009713351
42
-0.042413072335760145
10
-105.12474387602569
20
-32.385000000000083
10
-99.880988055785664
20
-32.385000000000083
42
0.011211458141547233
10
-98.328790799033001
20
-36.829999999999998
10
-77.272069022329845
20
-36.830000000000005
10
-77.27206902232993
20
-47.460000011344547
10
-66.461069022329852
20
-47.460000011344533
10
-66.461069022329852
20
-36.830000000000005
10
-53.329999999999949
20
-36.829999999999991
42
0.41421356237309404
10
-49.519999999999939
20
-33.02000000000001
10
-49.519999999999911
20
-15.240000000000094
42
0.41421356237309587
10
-53.329999999999927
20
-11.430000000000092
10
-74.328790799033087
20
-11.430000000000069
10
-74.32879079903303
20
11.429999999999945
10
-53.329999999999878
20
11.429999999999918
42
0.4142135623730947
10
-49.519999999999875
20
15.239999999999917
10
-49.519999999999854
20
33.968313068743534
10
-34.44933004899876
20
33.968313068743512
10
-34.449330048998767
20
44.285000011344479
10
-66.461069022329866
20
44.285000011344522
10
-66.461069022329866
20
47.460000011344512
10
-77.272069022329916
20
47.460000011344512
10
-77.272069022329887
20
42.505144593236217
0
LWPOLYLINE
5
101
100
AcDbEntity
8
0
100
AcDbPolyline
90
4
70
1
43
0.0
10
34.891209200966998
20
55.879999999999832
10
34.891209200967026
20
83.819999999999837
10
-15.908790799032975
20
83.819999999999879
10
-15.908790799033007
20
55.879999999999882
0
LWPOLYLINE
5
102
100
AcDbEntity
8
0
100
AcDbPolyline
90
4
70
1
43
0.0
10
-32.418790799033133
20
-58.420000000000122
10
-32.418790799033161
20
-86.360000000000127
10
31.081209200966814
20
-86.360000000000184
10
31.081209200966853
20
-58.420000000000194
0
LWPOLYLINE
5
103
100
AcDbEntity
8
0
100
AcDbPolyline
90
4
70
1
43
0.0
10
80.950222875488166
20
34.924999999999734
10
58.090222875488173
20
34.92499999999977
10
58.090222875488081
20
-34.925000000000225
10
80.950222875488095
20
-34.92500000000026
0
CIRCLE
5
104
100
AcDbEntity
8
0
100
AcDbCircle
10
29.000000000000004
20
-48.140923797350474
30
6.9388939039072315e-15
40
1.3499999999999979
210
0
220
0
230
1
0
CIRCLE
5
105
100
AcDbEntity
8
0
100
AcDbCircle
10
28.999999999999982
20
-97.140923797350467
30
6.9388939039072363e-15
40
1.249999999999998
210
0
220
0
230
1
0
CIRCLE
5
106
100
AcDbEntity
8
0
100
AcDbCircle
10
-28.999999999999993
20
-97.140923797350467
30
6.9388939039072402e-15
40
1.249999999999998
210
0
220
0
230
1
0
CIRCLE
5
107
100
AcDbEntity
8
0
100
AcDbCircle
10
-29.01489565555422
20
-47.99439887744181
30
6.9388939039072347e-15
40
1.249999999999998
210
0
220
0
230
1
0
CIRCLE
5
108
100
AcDbEntity
8
0
100
AcDbCircle
10
10.150000000000119
20
-42.645000000000088
30
-4.5762919482670297e-30
40
1.4999999999999967
210
0
220
0
230
-1
0
CIRCLE
5
109
100
AcDbEntity
8
0
100
AcDbCircle
10
10.150000000000126
20
42.645000000000088
30
3.8339513775204999e-30
40
1.500000000000004
210
0
220
0
230
-1
0
CIRCLE
5
110
100
AcDbEntity
8
0
100
AcDbCircle
10
3.7699999999999556
20
-7.0000000000003162
30
-6.2890593425096244e-31
40
1.6500000000000006
210
0
220
0
230
-1
0
CIRCLE
5
111
100
AcDbEntity
8
0
100
AcDbCircle
10
3.7699999999999556
20
6.9999999999996838
30
7.5160064988580848e-31
40
1.6500000000000004
210
0
220
0
230
-1
0
CIRCLE
5
112
100
AcDbEntity
8
0
100
AcDbCircle
10
21.519999999999957
20
-3.1974423109204508e-13
30
-1.1419736714357224e-30
40
1.6499999999999984
210
0
220
0
230
-1
0
CIRCLE
5
113
100
AcDbEntity
8
0
100
AcDbCircle
10
39.971209200966832
20
66.000000000000242
30
-9.534785987946291e-30
40
1.4999999999999973
210
0
220
0
230
1
0
CIRCLE
5
114
100
AcDbEntity
8
0
100
AcDbCircle
10
-39.971209200966854
20
-66.000000000000242
30
-3.4814189482004501e-30
40
1.4999999999999973
210
0
220
0
230
-1
0
CIRCLE
5
115
100
AcDbEntity
8
0
100
AcDbCircle
10
39.26999999999996
20
-7.0000000000003215
30
-3.0355479927572532e-30
40
1.6500000000000028
210
0
220
0
230
-1
0
CIRCLE
5
116
100
AcDbEntity
8
0
100
AcDbCircle
10
39.26999999999996
20
6.9999999999996865
30
-1.6550414086204819e-30
40
1.6499999999999984
210
0
220
0
230
-1
0
CIRCLE
5
117
100
AcDbEntity
8
0
100
AcDbCircle
10
-73.944873235478866
20
-51.184789767935008
30
6.9388939039072394e-15
40
1.500000000000012
210
0
220
0
230
1
0
CIRCLE
5
118
100
AcDbEntity
8
0
100
AcDbCircle
10
-82.876663003413924
20
-42.252999999999965
30
6.9388939039072378e-15
40
1.4999999999999973
210
0
220
0
230
1
0
CIRCLE
5
119
100
AcDbEntity
8
0
100
AcDbCircle
10
-82.876663003413995
20
42.252999999999972
30
6.9388939039072292e-15
40
1.4999999999999973
210
0
220
0
230
1
0
CIRCLE
5
120
100
AcDbEntity
8
0
100
AcDbCircle
10
-73.944873235478937
20
51.184789767935008
30
6.9388939039072284e-15
40
1.500000000000004
210
0
220
0
230
1
0
CIRCLE
5
121
100
AcDbEntity
8
0
100
AcDbCircle
10
-58.516946949601305
20
5.0050000000000017
30
6.9388939039072323e-15
40
1.500000000000004
210
0
220
0
230
1
0
CIRCLE
5
122
100
AcDbEntity
8
0
100
AcDbCircle
10
-58.516946949601305
20
-0.49499999999998767
30
6.9388939039072323e-15
40
1.4999999999999973
210
0
220
0
230
1
0
CIRCLE
5
123
100
AcDbEntity
8
0
100
AcDbCircle
10
-46.142008300000185
20
79.920302738864763
30
6.9388939039072236e-15
40
1.8033999999999875
210
0
220
0
230
1
0
CIRCLE
5
124
100
AcDbEntity
8
0
100
AcDbCircle
10
92.284016600000015
20
1.0302869668521453e-12
30
6.9388939039072213e-15
40
1.8033999999999941
210
0
220
0
230
1
0
CIRCLE
5
125
100
AcDbEntity
8
0
100
AcDbCircle
10
-46.142008299999482
20
-79.920302738865161
30
6.9388939039072402e-15
40
1.8033999999999952
210
0
220
0
230
1
0
CIRCLE
5
126
100
AcDbEntity
8
0
100
AcDbCircle
10
-48.365684980008226
20
-16.873515707637647
30
1.9319108743635985e-30
40
1.4999999999961031
210
0
220
0
230
-1
0
CIRCLE
5
127
100
AcDbEntity
8
0
100
AcDbCircle
10
-48.365684980008261
20
16.87351570763748
30
5.2596250932105839e-30
40
1.5000000000009721
210
0
220
0
230
-1
0
CIRCLE
5
128
100
AcDbEntity
8
0
100
AcDbCircle
10
-95.065684980008243
20
-16.873515707637662
30
5.0978315541451129e-30
40
1.4999999999960947
210
0
220
0
230
-1
0
CIRCLE
5
129
100
AcDbEntity
8
0
100
AcDbCircle
10
-95.065684980008285
20
16.87351570763748
30
8.4255457729920972e-30
40
1.5000000000009801
210
0
220
0
230
-1
0
CIRCLE
5
130
100
AcDbEntity
8
0
100
AcDbCircle
10
-27.799903102349163
20
-43.14412025409716
30
5.8220441920918968e-30
40
1.6500000000000028
210
0
220
0
230
1
0
CIRCLE
5
131
100
AcDbEntity
8
0
100
AcDbCircle
10
-43.144120254097224
20
-27.799903102349063
30
5.3492139955201837e-30
40
1.6500000000000028
210
0
220
0
230
1
0
CIRCLE
5
132
100
AcDbEntity
8
0
100
AcDbCircle
10
65.594760556770552
20
-50.250543405021389
30
1.9131202263213014e-31
40
1.6500000000000024
210
0
220
0
230
1
0
CIRCLE
5
133
100
AcDbEntity
8
0
100
AcDbCircle
10
-43.144120254097267
20
27.79990310234902
30
-1.3335018607368402e-31
40
1.6500000000000028
210
0
220
0
230
1
0
CIRCLE
5
134
100
AcDbEntity
8
0
100
AcDbCircle
10
-27.799903102349212
20
43.144120254097125
30
-2.6866332475609172e-30
40
1.6500000000000028
210
0
220
0
230
1
0
CIRCLE
5
135
100
AcDbEntity
8
0
100
AcDbCircle
10
-50.250543405022157
20
65.59476055676997
30
-3.3784470144342626e-30
40
1.6500000000000024
210
0
220
0
230
1
0
CIRCLE
5
136
100
AcDbEntity
8
0
100
AcDbCircle
10
-50.250543405022079
20
-65.594760556770012
30
9.5578385332080057e-30
40
1.6500000000000024
210
0
220
0
230
1
0
CIRCLE
5
137
100
AcDbEntity
8
0
100
AcDbCircle
10
43.144120254097459
20
-27.799903102348715
30
-5.0050174424118886e-31
40
1.6500000000000028
210
0
220
0
230
1
0
CIRCLE
5
138
100
AcDbEntity
8
0
100
AcDbCircle
10
27.799903102349518
20
-43.14412025409694
30
2.0527813172460476e-30
40
1.6500000000000028
210
0
220
0
230
1
0
CIRCLE
5
139
100
AcDbEntity
8
0
100
AcDbCircle
10
50.250543405022611
20
-65.594760556769614
30
2.7445950841193667e-30
40
1.6500000000000024
210
0
220
0
230
1
0
CIRCLE
5
140
100
AcDbEntity
8
0
100
AcDbCircle
10
65.59476055677014
20
50.250543405021915
30
-9.7188602669511247e-30
40
1.6500000000000024
210
0
220
0
230
1
0
CIRCLE
5
141
100
AcDbEntity
8
0
100
AcDbCircle
10
43.144120254097224
20
27.799903102349063
30
-5.9830659258350137e-30
40
1.6500000000000028
210
0
220
0
230
1
0
CIRCLE
5
142
100
AcDbEntity
8
0
100
AcDbCircle
10
27.799903102349163
20
43.14412025409716
30
-6.4558961224067268e-30
40
1.6500000000000028
210
0
220
0
230
1
0
CIRCLE
5
143
100
AcDbEntity
8
0
100
AcDbCircle
10
50.250543405022079
20
65.594760556770012
30
-1.0191690463522836e-29
40
1.6500000000000024
210
0
220
0
230
1
0
CIRCLE
5
144
100
AcDbEntity
8
0
100
AcDbCircle
10
-100.10883538067134
20
40.8698286118765
30
6.9388939039072315e-15
40
1.500000000000004
210
0
220
0
230
1
0
CIRCLE
5
145
100
AcDbEntity
8
0
100
AcDbCircle
10
-95.108835380671323
20
40.8698286118765
30
6.9388939039072315e-15
40
1.500000000000004
210
0
220
0
230
1
0
CIRCLE
5
146
100
AcDbEntity
8
0
100
AcDbCircle
10
100.10883538067132
20
-40.869828611876535
30
-6.9388939039072394e-15
40
1.500000000000004
210
0
220
0
230
-1
0
CIRCLE
5
147
100
AcDbEntity
8
0
100
AcDbCircle
10
95.108835380671309
20
-40.869828611876535
30
-6.9388939039072378e-15
40
1.500000000000004
210
0
220
0
230
-1
0
CIRCLE
5
148
100
AcDbEntity
8
0
100
AcDbCircle
10
-20.859649670000024
20
-20.859649669999975
30
6.9388939039072323e-15
40
1.5000000000000009
210
0
220
0
230
1
0
CIRCLE
5
149
100
AcDbEntity
8
0
100
AcDbCircle
10
-20.859649669999971
20
20.859649670000021
30
6.9388939039072276e-15
40
1.5000000000000004
210
0
220
0
230
1
0
CIRCLE
5
150
100
AcDbEntity
8
0
100
AcDbCircle
10
20.859649670000021
20
20.859649669999971
30
6.9388939039072244e-15
40
1.5000000000000009
210
0
220
0
230
1
0
CIRCLE
5
151
100
AcDbEntity
8
0
100
AcDbCircle
10
20.859649669999975
20
-20.859649670000024
30
6.9388939039072292e-15
40
1.5000000000000004
210
0
220
0
230
1
0
CIRCLE
5
152
100
AcDbEntity
8
0
100
AcDbCircle
10
-25.429197227997978
20
60.034999999998206
30
6.9388939039072244e-15
40
1.5874999999999886
210
0
220
0
230
1
0
CIRCLE
5
153
100
AcDbEntity
8
0
100
AcDbCircle
10
-25.42919722799806
20
85.434999999998226
30
6.9388939039072213e-15
40
1.5874999999999986
210
0
220
0
230
1
0
CIRCLE
5
154
100
AcDbEntity
8
0
100
AcDbCircle
10
-41.304197227998003
20
66.384999999998143
30
6.9388939039072244e-15
40
1.5874999999999786
210
0
220
0
230
1
0
ENDSEC
0
SECTION
2
OBJECTS
0
DICTIONARY
5
C
100
AcDbDictionary
3
ACAD_GROUP
350
D
3
ACAD_MLINESTYLE
350
17
0
DICTIONARY
5
D
100
AcDbDictionary
0
DICTIONARY
5
1A
330
C
100
AcDbDictionary
0
DICTIONARY
5
17
100
AcDbDictionary
0
ENDSEC
0
EOF
